<svg width="18" height="18" viewBox="0 0 18 18" fill="none" xmlns="http://www.w3.org/2000/svg">
<rect width="18" height="18" fill="#F5F5F5"/>
<g id="&#232;&#174;&#173;&#231;&#187;&#131;&#232;&#174;&#161;&#229;&#136;&#146; - &#233;&#128;&#137;&#230;&#139;&#169;&#231;&#155;&#174;&#230;&#160;&#135;" clip-path="url(#clip0_0_1)">
<g id="Birthday">
<path id="Vector" d="M296 -818H-118V78H296V-818Z" fill="white"/>
</g>
<g id="Tab Bar">
<g id="Background">
<path id="Background_2" d="M296 77.5517H-118V-14.6469H43.3088C46.3264 -14.6294 49.3154 -15.2319 52.0903 -16.4169C54.8653 -17.602 57.3671 -19.3443 59.4404 -21.5358C63.2185 -25.5954 67.7931 -28.8332 72.8789 -31.0472C77.9646 -33.2613 83.4523 -34.4039 88.9995 -34.4039C94.5466 -34.4039 100.034 -33.2613 105.12 -31.0472C110.206 -28.8332 114.78 -25.5954 118.559 -21.5358C120.632 -19.3442 123.134 -17.6018 125.909 -16.4167C128.684 -15.2317 131.673 -14.6293 134.691 -14.6469H296V77.5517Z" fill="white"/>
</g>
<g id="Background_3">
<path id="Background_4" d="M296 77.5517H-118V-14.6469H43.3088C46.3264 -14.6294 49.3154 -15.2319 52.0903 -16.4169C54.8653 -17.602 57.3671 -19.3443 59.4404 -21.5358C63.2185 -25.5954 67.7931 -28.8332 72.8789 -31.0472C77.9646 -33.2613 83.4523 -34.4039 88.9995 -34.4039C94.5466 -34.4039 100.034 -33.2613 105.12 -31.0472C110.206 -28.8332 114.78 -25.5954 118.559 -21.5358C120.632 -19.3442 123.134 -17.6018 125.909 -16.4167C128.684 -15.2317 131.673 -14.6293 134.691 -14.6469H296V77.5517Z" fill="white"/>
</g>
<g id="BUY car">
<g id="Group 6">
<g id="Group 8">
<path id="Union 1" d="M0.496299 17.4983C-0.310701 16.6813 -0.130659 15.1452 1.01534 12.9402C0.368715 11.7058 0.0291363 10.3338 0.0253513 8.94024C0.0315068 7.77323 0.267609 6.61887 0.719931 5.54306C1.17225 4.46725 1.83197 3.49108 2.66158 2.67029C3.4912 1.84949 4.47431 1.20013 5.55489 0.759336C6.63548 0.31854 7.79242 0.0949351 8.95943 0.101255C10.3319 0.103516 11.6852 0.422464 12.9143 1.03326C15.1343 -0.129738 16.6783 -0.312746 17.4983 0.493254C18.3253 1.32025 18.1244 2.94023 16.9194 5.18023C15.8804 7.02027 14.6321 8.73401 13.1994 10.2873C12.7304 10.8303 12.2503 11.3533 11.7683 11.8343C11.1413 12.4633 10.5174 13.0272 9.90743 13.5342C6.99743 16.0682 3.85228 17.9962 1.87228 17.9962C1.62119 18.0103 1.36997 17.9734 1.13351 17.8878C0.897039 17.8023 0.680232 17.6698 0.496299 17.4983ZM4.26241 7.29126C4.26294 7.64295 4.4028 7.98005 4.65157 8.22864C4.90035 8.47722 5.23763 8.61698 5.58932 8.61725C5.94083 8.61672 6.27777 8.47686 6.52633 8.2283C6.77489 7.97974 6.91471 7.64277 6.91524 7.29126C6.91498 6.93957 6.7754 6.60235 6.52682 6.35357C6.27823 6.1048 5.941 5.96479 5.58932 5.96426C5.23754 5.96479 4.90032 6.10477 4.65157 6.35351C4.40283 6.60226 4.26294 6.93948 4.26241 7.29126ZM6.8193 3.88125C6.82009 4.45909 7.05001 5.01301 7.4587 5.42151C7.86739 5.83001 8.42164 6.05971 8.99947 6.06024C9.57695 6.05945 10.1304 5.82958 10.5385 5.42105C10.9467 5.01252 11.1762 4.45873 11.1765 3.88125C11.1762 3.30387 10.9467 2.75019 10.5385 2.34183C10.1304 1.93346 9.57686 1.70377 8.99947 1.70325C8.42155 1.70324 7.86714 1.93263 7.45821 2.341C7.04928 2.74937 6.81911 3.30334 6.81832 3.88125H6.8193ZM6.23946 17.3563C8.49492 15.9692 10.5745 14.3149 12.4333 12.4293C14.3591 10.5487 16.0355 8.42873 17.4213 6.12124C17.7334 7.02806 17.8931 7.98024 17.8942 8.93924C17.8815 11.2958 16.9335 13.5508 15.2583 15.2082C13.583 16.8656 11.3179 17.7897 8.96139 17.7773C8.03748 17.7777 7.11888 17.6357 6.23824 17.3563H6.23946Z" fill="url(#paint0_linear_0_1)"/>
</g>
</g>
</g>
</g>
</g>
<defs>
<linearGradient id="paint0_linear_0_1" x1="8.99943" y1="0" x2="8.99943" y2="17.9992" gradientUnits="userSpaceOnUse">
<stop stop-color="#D988FF"/>
<stop offset="1" stop-color="#8B5CFF"/>
</linearGradient>
<clipPath id="clip0_0_1">
<rect width="414" height="896" fill="white" transform="translate(-118 -818)"/>
</clipPath>
</defs>
</svg>
