<svg width="19" height="20" viewBox="0 0 19 20" fill="none" xmlns="http://www.w3.org/2000/svg">
<g id="Group 6">
<g id="Ellipse 43">
<path id="Vector" d="M8.96183 18.28C13.6198 18.28 17.3958 14.5469 17.3958 9.94197C17.3958 5.33702 13.6198 1.60397 8.96183 1.60397C4.30386 1.60397 0.527832 5.33702 0.527832 9.94197C0.527832 14.5469 4.30386 18.28 8.96183 18.28Z" stroke="#8E8895" stroke-miterlimit="10"/>
</g>
<path id="Path 1507" d="M1.87288 19C1.62199 19.0135 1.37096 18.9762 1.13485 18.8902C0.898737 18.8043 0.682395 18.6716 0.498862 18.5C-0.324138 17.666 -0.127107 16.091 1.08089 13.817L1.91689 14.261C0.981891 16.023 0.702859 17.361 1.17086 17.832C2.05586 18.715 6.2639 16.968 11.1119 12.118C13.0597 10.2315 14.7342 8.08204 16.0869 5.73198C17.1979 3.66498 17.2009 2.53197 16.8319 2.16597C16.3609 1.69897 15.0209 1.98096 13.2549 2.92296L12.8099 2.08598C15.0899 0.870984 16.6669 0.672974 17.4999 1.49397C18.3329 2.31497 18.1259 3.94099 16.9209 6.18099C15.524 8.61196 13.7943 10.8358 11.7819 12.788C8.44188 16.131 4.28889 19 1.87288 19ZM5.5909 9.62099C5.32864 9.62099 5.07227 9.54321 4.85421 9.39751C4.63615 9.25181 4.46617 9.04471 4.3658 8.80241C4.26544 8.56012 4.2392 8.29349 4.29037 8.03627C4.34153 7.77905 4.46784 7.54279 4.65328 7.35735C4.83872 7.1719 5.07496 7.04563 5.33217 6.99446C5.58939 6.9433 5.85605 6.96954 6.09835 7.0699C6.34064 7.17026 6.54768 7.34021 6.69338 7.55827C6.83908 7.77633 6.91689 8.03271 6.91689 8.29497C6.91636 8.64648 6.77647 8.98345 6.52791 9.23201C6.27936 9.48057 5.94242 9.62046 5.5909 9.62099ZM5.5909 7.91597C5.51594 7.91597 5.44266 7.9382 5.38033 7.97984C5.318 8.02149 5.26943 8.0807 5.24074 8.14995C5.21206 8.2192 5.20451 8.29539 5.21914 8.36891C5.23376 8.44243 5.26989 8.50997 5.3229 8.56297C5.3759 8.61598 5.44341 8.65208 5.51693 8.6667C5.59045 8.68133 5.66667 8.67381 5.73592 8.64513C5.80517 8.61644 5.86438 8.56787 5.90603 8.50554C5.94767 8.44321 5.96987 8.36993 5.96987 8.29497C5.96987 8.19445 5.92992 8.09807 5.85885 8.02699C5.78777 7.95592 5.69142 7.91597 5.5909 7.91597ZM9.00088 7.06398C8.56987 7.06418 8.14847 6.93653 7.79 6.69722C7.43153 6.45791 7.1521 6.11767 6.98702 5.71953C6.82194 5.32139 6.77867 4.88325 6.86263 4.4605C6.9466 4.03775 7.15406 3.64937 7.45876 3.34453C7.76346 3.03969 8.15171 2.83207 8.57442 2.74791C8.99714 2.66375 9.4353 2.70686 9.83352 2.87175C10.2317 3.03664 10.5721 3.31592 10.8116 3.67427C11.0511 4.03263 11.1789 4.45396 11.1789 4.88496C11.1786 5.46262 10.9491 6.01657 10.5407 6.42513C10.1324 6.83368 9.57853 7.06345 9.00088 7.06398ZM9.00088 3.65398C8.75741 3.65398 8.51941 3.72617 8.31698 3.86144C8.11454 3.9967 7.95678 4.18896 7.86361 4.4139C7.77044 4.63883 7.74604 4.88635 7.79354 5.12514C7.84104 5.36393 7.95829 5.58326 8.13045 5.75542C8.30261 5.92758 8.52191 6.04483 8.7607 6.09233C8.99949 6.13983 9.24701 6.11544 9.47194 6.02226C9.69688 5.92909 9.88917 5.77133 10.0244 5.56889C10.1597 5.36646 10.2319 5.12843 10.2319 4.88496C10.2316 4.55856 10.1019 4.24562 9.87105 4.01482C9.64025 3.78402 9.32728 3.65424 9.00088 3.65398Z" fill="#8E8895"/>
</g>
</svg>
