<svg width="18" height="18" viewBox="0 0 18 18" fill="none" xmlns="http://www.w3.org/2000/svg">
<g id="Group 7">
<path id="Path 1509" d="M11.75 8.02698C11.75 8.20498 11.8028 8.379 11.9017 8.52701C12.0006 8.67501 12.1411 8.79037 12.3055 8.85849C12.47 8.92661 12.651 8.94443 12.8256 8.9097C13.0001 8.87497 13.1605 8.78926 13.2864 8.66339C13.4122 8.53752 13.498 8.37716 13.5327 8.20258C13.5674 8.02799 13.5496 7.84701 13.4814 7.68256C13.4133 7.5181 13.298 7.37755 13.15 7.27866C13.002 7.17976 12.828 7.12698 12.65 7.12698C12.4113 7.12698 12.1824 7.22181 12.0136 7.39059C11.8448 7.55938 11.75 7.78828 11.75 8.02698Z" fill="#8E8895"/>
<path id="Path 1510" d="M8.19604 8.02698C8.19604 8.20498 8.24882 8.379 8.34772 8.52701C8.44661 8.67501 8.58719 8.79037 8.75165 8.85849C8.9161 8.92661 9.09702 8.94443 9.27161 8.9097C9.44619 8.87497 9.60655 8.78926 9.73242 8.66339C9.85829 8.53752 9.94403 8.37716 9.97876 8.20258C10.0135 8.02799 9.99567 7.84701 9.92755 7.68256C9.85943 7.5181 9.74407 7.37755 9.59607 7.27866C9.44807 7.17976 9.27407 7.12698 9.09607 7.12698C8.85737 7.12698 8.62844 7.22181 8.45966 7.39059C8.29087 7.55938 8.19604 7.78828 8.19604 8.02698Z" fill="#8E8895"/>
<path id="Path 1511" d="M4.64209 8.02698C4.64209 8.20498 4.69487 8.379 4.79376 8.52701C4.89266 8.67501 5.03324 8.79037 5.19769 8.85849C5.36215 8.92661 5.54313 8.94443 5.71771 8.9097C5.8923 8.87497 6.0526 8.78926 6.17847 8.66339C6.30433 8.53752 6.39008 8.37716 6.4248 8.20258C6.45953 8.02799 6.44172 7.84701 6.3736 7.68256C6.30548 7.5181 6.19012 7.37755 6.04211 7.27866C5.89411 7.17976 5.72012 7.12698 5.54211 7.12698C5.30342 7.12698 5.07448 7.22181 4.9057 7.39059C4.73692 7.55938 4.64209 7.78828 4.64209 8.02698Z" fill="#8E8895"/>
<g id="Path 1512">
<path id="Vector" d="M9.00043 1H9.00061C4.58905 1.0004 1 4.18811 1 8.10599C1 10.1629 2.00586 12.1184 3.7597 13.4712L3.77014 13.4792L3.78033 13.4875C4.14307 13.7828 4.35455 14.2359 4.34796 14.7021V16.7824L6.67322 15.3299L6.68262 15.324L6.69214 15.3183C6.92633 15.1791 7.19519 15.1055 7.46954 15.1055C7.53503 15.1055 7.6012 15.1098 7.66626 15.1181L7.68298 15.1202L7.69958 15.123C8.11163 15.19 8.54913 15.224 9 15.224C13.4112 15.224 17 12.0363 17 8.11798C17 4.19351 13.4114 1.0004 9.00043 1ZM9 0H9.00098C9.00067 0 9.00079 0 9.00049 0C9.00018 0 9.00031 0 9 0ZM9.00049 0C13.942 0.000457764 18 3.62326 18 8.11798C18 12.603 13.94 16.224 9 16.224C8.495 16.224 8.00598 16.186 7.539 16.11C7.51587 16.107 7.49261 16.1055 7.46954 16.1055C7.37592 16.1055 7.284 16.1299 7.203 16.178L4.46399 17.889C4.34357 17.9643 4.20978 18.0002 4.07764 18.0002C3.83447 18.0002 3.59698 17.8786 3.45898 17.657C3.38696 17.541 3.34796 17.407 3.34796 17.271V14.693C3.35199 14.527 3.27795 14.368 3.14899 14.263C1.151 12.722 0 10.476 0 8.10599C0 3.62125 4.05994 0.000457764 9.00049 0Z" fill="#8E8895"/>
</g>
</g>
</svg>
