<svg width="164" height="175" viewBox="0 0 164 175" fill="none" xmlns="http://www.w3.org/2000/svg">
<path d="M81.5 175C92.8218 175 102 165.822 102 154.5C102 143.178 92.8218 134 81.5 134C70.1782 134 61 143.178 61 154.5C61 165.822 70.1782 175 81.5 175Z" fill="url(#paint0_radial_2_629)"/>
<path d="M82 149L0 0L164 0L82 149Z" fill="url(#paint1_linear_2_629)"/>
<path d="M82 145L86 149H78L82 145Z" fill="#8B5CFF"/>
<path d="M82 163C86.4183 163 90 159.418 90 155C90 150.582 86.4183 147 82 147C77.5817 147 74 150.582 74 155C74 159.418 77.5817 163 82 163Z" fill="#8B5CFF"/>
<path d="M82 162C85.866 162 89 158.866 89 155C89 151.134 85.866 148 82 148C78.134 148 75 151.134 75 155C75 158.866 78.134 162 82 162Z" stroke="white" stroke-width="2"/>
<defs>
<radialGradient id="paint0_radial_2_629" cx="0" cy="0" r="1" gradientUnits="userSpaceOnUse" gradientTransform="translate(84.14 151.46) rotate(-8.16251) scale(20.7077)">
<stop stop-color="white" stop-opacity="0"/>
<stop offset="0.598" stop-color="white" stop-opacity="0.012"/>
<stop offset="1" stop-color="white" stop-opacity="0.4"/>
</radialGradient>
<linearGradient id="paint1_linear_2_629" x1="82" y1="149" x2="82" y2="0" gradientUnits="userSpaceOnUse">
<stop stop-color="white" stop-opacity="0.651"/>
<stop offset="0.309" stop-color="white" stop-opacity="0.141"/>
<stop offset="1" stop-color="white" stop-opacity="0"/>
</linearGradient>
</defs>
</svg>
