<svg width="18" height="19" viewBox="0 0 18 19" fill="none" xmlns="http://www.w3.org/2000/svg">
<path d="M8.95532 0V1C8.80664 1 8.66125 1.04385 8.53473 1.12695L1.37866 5.82266C1.1452 5.97546 1.00012 6.25107 1.00012 6.5419V16.1529C1.00012 16.6199 1.35901 16.9999 1.80011 16.9999H16.2001C16.6412 16.9999 17.0001 16.6199 17.0001 16.1529V6.54788C17.0001 6.25073 16.8575 5.98096 16.6178 5.82574L9.37262 1.12466C9.24701 1.04312 9.10272 1.00003 8.95538 1L8.95532 0ZM8.95544 0C9.28937 3.05176e-05 9.62347 0.0952759 9.91711 0.285889L17.1621 4.98688C17.6841 5.32489 18.0001 5.91388 18.0001 6.54788V16.1529C18.0001 17.1729 17.1941 17.9999 16.2001 17.9999H1.80011C0.806091 17.9999 0.00012207 17.1729 0.00012207 16.1529V6.5419C0.00012207 5.9119 0.31311 5.32489 0.831116 4.9859L7.98608 0.290894C8.28143 0.0969849 8.61835 0 8.95544 0Z" fill="#8E8895"/>
<path d="M5.91711 13.0679H12.0841" stroke="#8E8895" stroke-miterlimit="10" stroke-linecap="round"/>
</svg>
