<svg width="18" height="19" viewBox="0 0 18 19" fill="none" xmlns="http://www.w3.org/2000/svg">
<path id="Path 1508" d="M17.1621 4.98701L9.91714 0.287024C9.62961 0.0996007 9.29362 0.000216293 8.9504 0.00110454C8.60719 0.00199278 8.27168 0.10312 7.98513 0.292029L0.830164 4.99201C0.573814 5.16238 0.363764 5.39374 0.218897 5.66532C0.0740305 5.9369 -0.00113628 6.24021 0.000147183 6.54801V16.159C-0.00599263 16.6426 0.18018 17.1088 0.517725 17.4552C0.855271 17.8016 1.31654 17.9997 1.80014 18.006H16.2002C16.6838 17.9997 17.145 17.8016 17.4826 17.4552C17.8201 17.1088 18.0063 16.6426 18.0001 16.159V6.55402C18.0024 6.24363 17.9269 5.93763 17.7805 5.66392C17.6341 5.3902 17.4215 5.15747 17.1621 4.98701ZM12.0832 13.568H5.91616C5.78355 13.568 5.65635 13.5153 5.56259 13.4216C5.46882 13.3278 5.41616 13.2006 5.41616 13.068C5.41616 12.9354 5.46882 12.8082 5.56259 12.7145C5.65635 12.6207 5.78355 12.568 5.91616 12.568H12.0832C12.2158 12.568 12.3429 12.6207 12.4367 12.7145C12.5304 12.8082 12.5832 12.9354 12.5832 13.068C12.5832 13.2006 12.5304 13.3278 12.4367 13.4216C12.3429 13.5153 12.2158 13.568 12.0832 13.568Z" fill="url(#paint0_linear_2_609)"/>
<defs>
<linearGradient id="paint0_linear_2_609" x1="9.00015" y1="0.00109863" x2="9.00015" y2="18.006" gradientUnits="userSpaceOnUse">
<stop stop-color="#D988FF"/>
<stop offset="1" stop-color="#8B5CFF"/>
</linearGradient>
</defs>
</svg>
