<svg width="14" height="14" viewBox="0 0 14 14" fill="none" xmlns="http://www.w3.org/2000/svg">
<path d="M1.49315 12.1428L4.62503 11.5727L11.9188 4.3524C12.2572 4.01962 12.4436 3.58377 12.4436 3.12519C12.4436 2.66658 12.2569 2.23009 11.9178 1.8959C11.58 1.56293 11.1298 1.37957 10.65 1.37957C10.17 1.37957 9.71931 1.5631 9.38131 1.89594L2.06058 9.1127L1.49315 12.1428ZM1.04256 13.3464H0.889126C0.736773 13.3464 0.584421 13.2869 0.46293 13.1666C0.310644 13.0154 0.248787 12.8356 0.279716 12.6248L1.01163 8.71638C1.04256 8.5961 1.10327 8.47581 1.19491 8.41624L8.60608 1.11031C9.17081 0.554174 9.91047 0.276123 10.65 0.276123C11.3895 0.276123 12.1289 0.554174 12.693 1.11031C13.2429 1.6521 13.5476 2.37375 13.5476 3.12519C13.5476 3.87664 13.2429 4.59832 12.693 5.139L5.31281 12.4449C5.22123 12.5354 5.12959 12.595 5.00702 12.6248L1.04256 13.3464Z" fill="white"/>
<path d="M8.10706 13.1665H12.979" stroke="white" stroke-linecap="round" stroke-linejoin="round"/>
<path d="M8.24506 2.2688L11.4246 5.49859" stroke="white" stroke-linecap="round" stroke-linejoin="round"/>
</svg>
