<svg width="60" height="60" viewBox="0 0 60 60" fill="none" xmlns="http://www.w3.org/2000/svg">
<g id="posst">
<path id="Ellipse 80" d="M30 60C46.5685 60 60 46.5685 60 30C60 13.4315 46.5685 0 30 0C13.4315 0 0 13.4315 0 30C0 46.5685 13.4315 60 30 60Z" fill="url(#paint0_linear_2_610)"/>
<path id="Path 1513" d="M38.5639 19.1C38.9994 18.9513 39.4745 18.9687 39.8979 19.149C40.291 19.3172 40.6127 19.618 40.8069 19.999C41.0021 20.3865 41.0501 20.8317 40.9419 21.252C39.7686 27.0733 38.5966 32.895 37.4259 38.717C37.3821 38.981 37.3213 39.2418 37.2439 39.498C37.1596 39.7244 37.0312 39.9318 36.866 40.1081C36.7009 40.2844 36.5023 40.4261 36.2819 40.525C35.8393 40.7223 35.3374 40.7402 34.8819 40.575C34.6318 40.4652 34.3929 40.3312 34.1689 40.175L31.5179 38.527C31.3193 38.4036 31.087 38.3458 30.8537 38.3616C30.6204 38.3774 30.3981 38.466 30.2179 38.615C29.3299 39.3517 28.4419 40.089 27.5539 40.827C27.4684 40.9013 27.366 40.9534 27.2556 40.9789C27.1452 41.0043 27.0303 41.0023 26.9209 40.973C26.8123 40.9366 26.7148 40.8728 26.6379 40.7879C26.5611 40.703 26.5073 40.5997 26.4819 40.488C26.4524 40.3271 26.4433 40.1632 26.4549 40C26.4549 38.243 26.4549 36.487 26.4549 34.73C26.4543 34.4518 26.5619 34.1843 26.7549 33.984C29.7775 30.858 32.8002 27.7316 35.8229 24.605C36.0025 24.4208 36.167 24.2225 36.3149 24.012C36.3652 23.9465 36.3995 23.8701 36.4149 23.789C36.4099 23.724 36.3309 23.744 36.2899 23.758C36.1052 23.8391 35.9314 23.9432 35.7729 24.068C35.4729 24.294 35.1809 24.528 34.8849 24.757L24.1759 33.107C23.996 33.2466 23.7778 33.3278 23.5504 33.3398C23.323 33.3518 23.0975 33.2939 22.9039 33.174C21.9193 32.562 20.9346 31.95 19.9499 31.338C19.6047 31.1504 19.3289 30.857 19.1629 30.501C19.0614 30.2805 19.0062 30.0415 19.0005 29.7989C18.9948 29.5562 19.0388 29.315 19.1299 29.09C19.2291 28.8512 19.3771 28.6357 19.5645 28.4575C19.7519 28.2792 19.9744 28.1421 20.2179 28.055C26.2012 25.131 32.1843 22.206 38.1669 19.28C38.2952 19.2114 38.4278 19.1512 38.5639 19.1Z" fill="white"/>
</g>
<defs>
<linearGradient id="paint0_linear_2_610" x1="30" y1="0" x2="30" y2="60" gradientUnits="userSpaceOnUse">
<stop stop-color="#D988FF"/>
<stop offset="1" stop-color="#8B5CFF"/>
</linearGradient>
</defs>
</svg>
