<svg width="39" height="41" viewBox="0 0 39 41" fill="none" xmlns="http://www.w3.org/2000/svg">
<path d="M18.827 40.3881L15.927 37.7521C11.2696 36.9882 7.06323 34.5182 4.12697 30.8232C1.19071 27.1281 -0.265214 22.4726 0.0427029 17.763C0.35062 13.0534 2.40034 8.62701 5.79271 5.34575C9.18508 2.06449 13.6773 0.163261 18.3945 0.0122944C23.1117 -0.138672 27.7162 1.47143 31.3115 4.52907C34.9067 7.5867 37.2353 11.873 37.8437 16.5532C38.4521 21.2335 37.2968 25.9726 34.6029 29.8479C31.9089 33.7231 27.869 36.4569 23.27 37.5171C23.2187 37.5994 23.1561 37.6742 23.084 37.7391L20.171 40.3881C19.987 40.5553 19.7472 40.648 19.4985 40.648C19.2498 40.648 19.0101 40.5553 18.826 40.3881H18.827Z" fill="white"/>
</svg>
