<svg width="375" height="375" viewBox="0 0 375 375" fill="none" xmlns="http://www.w3.org/2000/svg">
<path opacity="0.75" d="M187.5 374C200.154 374 212.8 372.725 225.087 370.211C237.061 367.761 248.839 364.105 260.093 359.344C271.145 354.67 281.803 348.885 291.773 342.149C301.648 335.478 310.935 327.815 319.375 319.375C327.815 310.935 335.477 301.649 342.149 291.773C348.885 281.802 354.671 271.144 359.344 260.094C364.105 248.839 367.761 237.061 370.211 225.087C372.725 212.802 374 200.156 374 187.5C374 174.844 372.725 162.198 370.211 149.913C367.761 137.939 364.105 126.161 359.344 114.906C354.67 103.856 348.885 93.1976 342.149 83.227C335.477 73.3513 327.815 64.0646 319.375 55.6247C310.935 47.1846 301.648 39.5223 291.773 32.8507C281.803 26.1154 271.145 20.3301 260.093 15.6557C248.839 10.8953 237.061 7.23925 225.087 4.7891C212.8 2.27485 200.154 1 187.5 1C174.845 1 162.199 2.27485 149.912 4.7891C137.938 7.2392 126.16 10.8953 114.905 15.6557C103.855 20.3298 93.1965 26.1151 83.2263 32.8507C73.3502 39.523 64.0634 47.1852 55.6239 55.6247C47.1841 64.0648 39.522 73.3515 32.8503 83.227C26.1152 93.1962 20.33 103.855 15.6554 114.906C10.8955 126.16 7.2394 137.938 4.7888 149.913C2.27475 162.199 1 174.845 1 187.5C1 200.155 2.27475 212.801 4.7888 225.087C7.2394 237.062 10.8955 248.84 15.6554 260.094C20.33 271.145 26.1152 281.804 32.8504 291.773C39.522 301.649 47.1842 310.935 55.6239 319.375C64.0634 327.815 73.3502 335.477 83.2263 342.149C93.1965 348.885 103.855 354.67 114.905 359.344C126.16 364.105 137.938 367.761 149.912 370.211C162.199 372.725 174.845 374 187.5 374ZM187.5 51.1191C262.701 51.1191 323.881 112.299 323.881 187.5C323.881 262.701 262.701 323.881 187.5 323.881C112.298 323.881 51.1177 262.701 51.1177 187.5C51.1177 112.299 112.298 51.1191 187.5 51.1191ZM187.5 277.389C199.635 277.389 211.407 275.013 222.489 270.326C233.192 265.798 242.806 259.317 251.061 251.061C259.316 242.806 265.798 233.193 270.326 222.489C275.013 211.407 277.389 199.635 277.389 187.5C277.389 175.365 275.013 163.593 270.326 152.511C265.798 141.807 259.316 132.193 251.061 123.938C242.806 115.682 233.193 109.201 222.489 104.673C211.407 99.9862 199.635 97.6096 187.5 97.6096C175.364 97.6096 163.592 99.9862 152.511 104.673C141.807 109.201 132.194 115.682 123.938 123.938C115.682 132.194 109.2 141.807 104.673 152.511C99.9859 163.592 97.6094 175.364 97.6094 187.5C97.6094 199.636 99.9859 211.408 104.673 222.489C109.2 233.192 115.682 242.805 123.938 251.061C132.194 259.317 141.807 265.798 152.511 270.326C163.592 275.013 175.364 277.389 187.5 277.389ZM187.5 128.661C219.943 128.661 246.338 155.056 246.338 187.5C246.338 219.944 219.943 246.338 187.5 246.338C155.056 246.338 128.66 219.944 128.66 187.5C128.66 155.056 155.056 128.661 187.5 128.661ZM187.5 375C174.778 375 162.064 373.718 149.712 371.191C137.673 368.727 125.832 365.051 114.516 360.265C103.406 355.566 92.6902 349.75 82.6665 342.978C72.7371 336.27 63.4009 328.566 54.9168 320.082C46.4317 311.597 38.7288 302.261 32.0218 292.333C25.25 282.31 19.4339 271.594 14.7344 260.483C9.94825 249.168 6.2727 237.326 3.8091 225.288C1.28125 212.934 0 200.221 0 187.5C0 174.779 1.28125 162.066 3.8091 149.712C6.2727 137.674 9.94825 125.832 14.7344 114.517C19.4339 103.406 25.25 92.6905 32.0218 82.6672C38.7288 72.7393 46.4317 63.403 54.9168 54.9176C63.4009 46.4335 72.7371 38.7304 82.6665 32.0221C92.6902 25.2504 103.406 19.434 114.516 14.7347C125.832 9.9485 137.673 6.2727 149.712 3.8094C162.064 1.2817 174.778 0 187.5 0C200.221 0 212.935 1.2817 225.287 3.8094C237.326 6.27275 249.167 9.94855 260.483 14.7347C271.593 19.434 282.309 25.2503 292.333 32.0221C302.261 38.7297 311.597 46.4328 320.082 54.9176C328.567 63.4025 336.27 72.7388 342.978 82.6672C349.75 92.6911 355.566 103.407 360.265 114.517C365.051 125.832 368.727 137.674 371.191 149.712C373.718 162.064 375 174.778 375 187.5C375 200.222 373.718 212.936 371.191 225.288C368.727 237.326 365.051 249.168 360.265 260.483C355.566 271.593 349.75 282.309 342.978 292.333C336.27 302.261 328.567 311.597 320.082 320.082C311.597 328.567 302.261 336.27 292.333 342.978C282.309 349.75 271.593 355.566 260.483 360.265C249.167 365.051 237.326 368.727 225.287 371.191C212.935 373.718 200.221 375 187.5 375ZM187.5 52.1191C112.85 52.1191 52.1177 112.851 52.1177 187.5C52.1177 262.149 112.85 322.881 187.5 322.881C262.149 322.881 322.881 262.149 322.881 187.5C322.881 112.851 262.149 52.1191 187.5 52.1191ZM187.5 278.389C175.23 278.389 163.327 275.986 152.121 271.247C141.298 266.669 131.578 260.116 123.231 251.769C114.883 243.421 108.33 233.701 103.752 222.878C99.0124 211.673 96.6094 199.77 96.6094 187.5C96.6094 175.23 99.0124 163.327 103.752 152.122C108.33 141.299 114.883 131.578 123.231 123.231C131.578 114.884 141.298 108.33 152.121 103.752C163.327 99.0127 175.23 96.6096 187.5 96.6096C199.77 96.6096 211.673 99.0127 222.878 103.752C233.701 108.33 243.421 114.884 251.768 123.231C260.115 131.578 266.669 141.298 271.247 152.122C275.986 163.327 278.389 175.23 278.389 187.5C278.389 199.77 275.986 211.673 271.247 222.878C266.669 233.701 260.115 243.421 251.768 251.769C243.421 260.116 233.701 266.669 222.878 271.247C211.673 275.986 199.77 278.389 187.5 278.389ZM187.5 129.661C155.607 129.661 129.66 155.607 129.66 187.5C129.66 219.392 155.607 245.338 187.5 245.338C219.392 245.338 245.338 219.392 245.338 187.5C245.338 155.607 219.392 129.661 187.5 129.661Z" fill="#D988FF"/>
</svg>
