<svg width="16" height="18" viewBox="0 0 16 18" fill="none" xmlns="http://www.w3.org/2000/svg">
<g id="icon">
<g id="Path 1504">
<path id="Vector" d="M6.16901 10.989C3.31879 10.989 1 13.1907 1 15.897V16.248C1 16.3556 1.01953 16.3861 1.09174 16.442C1.18384 16.5133 1.42169 16.649 1.98035 16.756C2.99866 16.951 4.53864 16.951 6.16901 16.951H9.83002C11.4265 16.951 12.9345 16.951 13.9713 16.7554C14.5226 16.6514 14.7818 16.5222 14.9021 16.4321C14.9924 16.3645 15 16.3317 15 16.248V15.897C15 13.1907 12.6808 10.989 9.83002 10.989H6.16901ZM6.16803 9.98898H9.83002C13.232 9.98898 16 12.64 16 15.897V16.248C16 17.951 13.141 17.951 9.83002 17.951H6.16901C2.72302 17.951 0 17.951 0 16.248V15.897C0 12.638 2.76703 9.98898 6.16901 9.98898H6.16803Z" fill="#8E8895"/>
</g>
<g id="Path 1505">
<path id="Vector_2" d="M7.82068 8H7.82043C9.75012 7.99982 11.3201 6.43015 11.3201 4.50098C11.3201 2.57053 9.75043 1 7.82104 1C5.89062 1 4.32007 2.57053 4.32007 4.50098C4.32007 6.43015 5.89044 7.99982 7.82068 8ZM7.82104 9H7.82007C7.82019 9 7.82043 9 7.82056 9C7.82074 9 7.82092 9 7.82104 9ZM7.82056 9C5.33875 8.99976 3.32007 6.98184 3.32007 4.50098C3.32007 2.01898 5.33905 0 7.82104 0C10.3021 0 12.3201 2.01898 12.3201 4.50098C12.3201 6.98285 10.3024 8.99976 7.82056 9Z" fill="#8E8895"/>
</g>
</g>
</svg>
