<svg width="414" height="21" viewBox="0 0 414 21" fill="none" xmlns="http://www.w3.org/2000/svg">
<path d="M414 20.9655H252.691C249.518 20.981 246.375 20.3423 243.46 19.0892C240.545 17.8362 237.92 15.9957 235.748 13.6828C232.085 9.71567 227.639 6.54974 222.691 4.38436C217.744 2.21899 212.401 1.10109 206.999 1.10109C201.598 1.10109 196.255 2.21899 191.308 4.38436C186.36 6.54974 181.914 9.71567 178.251 13.6828C176.08 15.9959 173.454 17.8365 170.539 19.0896C167.624 20.3427 164.482 20.9813 161.309 20.9655H0V19.8621H161.309C164.33 19.8781 167.321 19.2713 170.097 18.0795C172.873 16.8878 175.372 15.1367 177.44 12.9357C181.207 8.85698 185.778 5.60191 190.865 3.37561C195.953 1.14931 201.446 0 206.999 0C212.553 0 218.046 1.14931 223.134 3.37561C228.221 5.60191 232.792 8.85698 236.559 12.9357C238.627 15.1369 241.127 16.8881 243.902 18.0798C246.678 19.2716 249.67 19.8783 252.691 19.8621H414V20.9655Z" fill="#F1F0F3"/>
</svg>
