<svg width="14" height="17" viewBox="0 0 14 17" fill="none" xmlns="http://www.w3.org/2000/svg">
<path d="M7.06321 0.207012C5.33844 0.177466 3.67238 0.832964 2.43056 2.02969C1.18874 3.22641 0.472581 4.86662 0.439211 6.59046C0.43816 7.891 0.847676 9.15872 1.60945 10.2131C1.64691 10.2767 1.68782 10.3382 1.73199 10.3974L6.56641 16.5392C6.62929 16.6085 6.70595 16.6639 6.7915 16.7019C6.87705 16.7399 6.96959 16.7597 7.06321 16.7598C7.1619 16.7583 7.25913 16.7358 7.34841 16.6937C7.43769 16.6517 7.51698 16.5911 7.58099 16.516L12.3933 10.3985C12.434 10.3456 12.4709 10.2899 12.5037 10.2318C13.2732 9.17347 13.6875 7.89873 13.6872 6.59046C13.6538 4.86662 12.9377 3.22641 11.6959 2.02969C10.454 0.832964 8.78798 0.177466 7.06321 0.207012ZM7.06321 8.87349C6.44718 8.88354 5.85227 8.64914 5.40882 8.22162C4.96537 7.79411 4.70953 7.20835 4.69734 6.59267C4.72369 5.98319 4.98447 5.40741 5.42527 4.98546C5.86607 4.5635 6.45286 4.32796 7.06321 4.32796C7.67356 4.32796 8.26035 4.5635 8.70115 4.98546C9.14196 5.40741 9.40273 5.98319 9.42908 6.59267C9.41689 7.20835 9.16105 7.79411 8.7176 8.22162C8.27415 8.64914 7.67924 8.88354 7.06321 8.87349Z" fill="white"/>
</svg>
